<svg id="SvgjsSvg1014" xmlns="http://www.w3.org/2000/svg" version="1.1" xmlns:xlink="http://www.w3.org/1999/xlink" xmlns:svgjs="http://svgjs.com/svgjs" width="17" height="16" viewBox="0 0 17 16"><title>Shape 170</title><desc>Created with Avocode.</desc><defs id="SvgjsDefs1015"></defs><path id="SvgjsPath1016" d="M1131.44 1507.53C1131.39 1507.49 1131.3200000000002 1507.49 1131.26 1507.52L1115.58 1515.47C1115.53 1515.5 1115.49 1515.56 1115.5 1515.6200000000001C1115.5 1515.69 1115.55 1515.74 1115.61 1515.7600000000002L1120.57 1517.3300000000002C1120.62 1517.3400000000001 1120.6799999999998 1517.3300000000002 1120.73 1517.2900000000002L1128.27 1510.9L1122.48 1517.7C1122.44 1517.74 1122.43 1517.8 1122.45 1517.8500000000001C1122.46 1517.9 1122.5 1517.94 1122.55 1517.96L1128.3799999999999 1519.72C1128.3899999999999 1519.72 1128.4099999999999 1519.72 1128.4199999999998 1519.72C1128.4499999999998 1519.72 1128.4799999999998 1519.71 1128.4999999999998 1519.7C1128.5399999999997 1519.68 1128.5699999999997 1519.64 1128.5799999999997 1519.6000000000001L1131.4899999999998 1507.7C1131.5099999999998 1507.64 1131.4799999999998 1507.57 1131.4399999999998 1507.53ZM1124.26 1519.69L1122.65 1519.2C1122.6000000000001 1519.19 1122.5500000000002 1519.2 1122.5 1519.23C1122.46 1519.26 1122.44 1519.31 1122.44 1519.3600000000001V1522.3700000000001C1122.44 1522.44 1122.49 1522.5000000000002 1122.56 1522.5200000000002C1122.57 1522.5300000000002 1122.59 1522.5300000000002 1122.6 1522.5300000000002C1122.6499999999999 1522.5300000000002 1122.7099999999998 1522.5000000000002 1122.74 1522.4500000000003L1124.35 1519.9300000000003C1124.37 1519.8900000000003 1124.3799999999999 1519.8400000000004 1124.36 1519.7900000000002C1124.34 1519.7400000000002 1124.31 1519.7100000000003 1124.26 1519.6900000000003Z " fill="#ffffff" fill-opacity="1" transform="matrix(1,0,0,1,-1115,-1507)"></path></svg>