<svg id="SvgjsSvg1011" xmlns="http://www.w3.org/2000/svg" version="1.1" xmlns:xlink="http://www.w3.org/1999/xlink" xmlns:svgjs="http://svgjs.com/svgjs" width="13" height="16" viewBox="0 0 13 16"><title>Shape 155</title><desc>Created with Avocode.</desc><defs id="SvgjsDefs1012"></defs><path id="SvgjsPath1013" d="M891.22 1519.99L888.155 1511.7V1509.26C888.733 1509.06 889.149 1508.51 889.149 1507.87V1507.4699999999998C889.149 1506.6599999999999 888.486 1505.9999999999998 887.67 1505.9999999999998H883.295C882.4799999999999 1505.9999999999998 881.8159999999999 1506.6599999999999 881.8159999999999 1507.4699999999998V1507.87C881.8159999999999 1508.51 882.2309999999999 1509.06 882.8109999999999 1509.26V1511.7L879.752 1519.97C879.5659999999999 1520.43 879.6189999999999 1520.94 879.894 1521.3500000000001C880.17 1521.7600000000002 880.628 1522.0000000000002 881.122 1522.0000000000002H889.8439999999999C890.337 1522.0000000000002 890.7959999999999 1521.7600000000002 891.0709999999999 1521.3500000000001C891.3469999999999 1520.94 891.3999999999999 1520.43 891.2199999999999 1519.9900000000002ZM883.109 1518.11C883.109 1517.83 883.335 1517.61 883.6120000000001 1517.61C883.892 1517.61 884.118 1517.83 884.118 1518.11C884.118 1518.3899999999999 883.892 1518.61 883.6120000000001 1518.61C883.335 1518.61 883.109 1518.3899999999999 883.109 1518.11ZM886.359 1518.55C886.841 1518.55 887.23 1518.93 887.23 1519.4099999999999C887.23 1519.8899999999999 886.841 1520.2799999999997 886.359 1520.2799999999997C885.8770000000001 1520.2799999999997 885.488 1519.8899999999996 885.488 1519.4099999999999C885.488 1518.9299999999998 885.8770000000001 1518.55 886.359 1518.55ZM885.617 1516.65C885.617 1516.3000000000002 885.899 1516.02 886.246 1516.02C886.592 1516.02 886.8729999999999 1516.3 886.8729999999999 1516.65C886.8729999999999 1516.99 886.592 1517.27 886.246 1517.27C885.899 1517.27 885.617 1516.99 885.617 1516.65ZM883.789 1511.87V1508.85L883.785 1508.37H883.295C883.019 1508.37 882.795 1508.1399999999999 882.795 1507.87V1507.4699999999998C882.795 1507.1999999999998 883.019 1506.9699999999998 883.295 1506.9699999999998H887.67C887.9459999999999 1506.9699999999998 888.1709999999999 1507.1999999999998 888.1709999999999 1507.4699999999998V1507.87C888.1709999999999 1508.1399999999999 887.9459999999999 1508.37 887.6659999999999 1508.37H887.1759999999999V1511.87L888.035 1514.1899999999998C888.023 1514.1999999999998 888.0129999999999 1514.2099999999998 888.001 1514.2199999999998C887.362 1514.8799999999999 882.693 1514.9599999999998 882.693 1514.9599999999998H882.648ZM885.142 1513.74C885.517 1513.74 885.8230000000001 1513.44 885.8230000000001 1513.07C885.8230000000001 1512.6899999999998 885.517 1512.3899999999999 885.142 1512.3899999999999C884.7650000000001 1512.3899999999999 884.46 1512.6899999999998 884.46 1513.07C884.46 1513.4399999999998 884.765 1513.74 885.142 1513.74Z " fill="#ffffff" fill-opacity="1" transform="matrix(1,0,0,1,-879,-1506)"></path></svg>